<?xml version="1.0" standalone="no"?>
<!DOCTYPE svg PUBLIC "-//W3C//DTD SVG 20010904//EN"
 "http://www.w3.org/TR/2001/REC-SVG-20010904/DTD/svg10.dtd">
<svg version="1.0" xmlns="http://www.w3.org/2000/svg"
 width="1024.000000pt" height="1000.000000pt" viewBox="0 0 1024.000000 1000.000000"
 preserveAspectRatio="xMidYMid meet">

<g transform="translate(0.000000,1000.000000) scale(0.100000,-0.100000)"
fill="#000000" stroke="none">
<path d="M1074 8270 c-28 -11 -61 -54 -69 -90 -9 -39 9 -91 41 -121 l26 -24
471 -6 c385 -5 482 -9 523 -21 180 -54 324 -206 368 -388 9 -36 156 -1116 326
-2400 171 -1284 319 -2370 330 -2412 26 -106 98 -242 170 -320 157 -172 331
-251 576 -264 l122 -7 11 -44 c60 -238 279 -417 526 -430 120 -7 192 8 300 61
144 71 250 196 296 349 l21 67 542 0 542 0 22 -74 c26 -88 102 -208 170 -266
103 -87 247 -140 387 -140 161 0 289 53 405 169 132 130 190 292 170 468 -17
150 -66 250 -174 358 -138 137 -333 194 -528 154 -161 -33 -322 -157 -391
-300 -19 -41 -38 -82 -41 -91 -5 -17 -41 -18 -563 -18 l-558 0 -17 48 c-59
166 -242 325 -416 361 -69 14 -187 14 -254 0 -177 -38 -346 -179 -412 -344
l-24 -60 -83 -3 c-108 -4 -187 11 -274 53 -123 60 -216 163 -264 290 -15 40
-48 262 -116 767 -52 392 -95 720 -95 730 0 17 89 18 2058 18 1970 0 2061 1
2148 19 253 52 465 227 562 464 48 117 762 2185 762 2207 0 39 -29 90 -62 110
-33 20 -42 20 -2940 20 l-2907 0 -6 33 c-3 17 -19 131 -35 253 -19 137 -40
251 -56 300 -86 266 -325 474 -598 523 -72 13 -961 14 -992 1z m6936 -2377 c0
-5 -22 -71 -49 -148 l-49 -140 -2473 0 -2474 0 -17 125 c-9 69 -17 135 -17
148 l-1 22 2540 0 c1397 0 2540 -3 2540 -7z"/>
</g>
</svg>
